# xmcd
#
# Track frame offsets: 
#        150
#        13711
#        24326
#        37015
#        46137
#        57823
#        70010
#        80765
#        92864
#        103773
#        115680
#        128571
#        140137
#        153523
#        164774
#        176560
#        187276
#        200933
#        211596
#        224880
#        236679
#        247212
#        258547
#        270790
#        281251
#        291683
#        302738
#        314288
#
# Disc length: 4308 seconds
#
# Revision: 1
# Processed by: cddbd v1.5.2PL0 Copyright (c) Steve Scherf et al.
# Submitted via: ExactAudioCopy v1.0b1
#
DISCID=b210d21c
DTITLE=Various Artist - Country and Western Hit Parade 1954
DYEAR=2008
DGENRE=Country
TTITLE0=Stuart Hamblen - This Ole House
TTITLE1=Slim Whitman - Rose Marie
TTITLE2=Jim Reeves - Bimbo
TTITLE3=Johnnie and Jack - Oh Baby Mine (I Get So Lonely)
TTITLE4=Eddy Arnold - I Really Don't Want To Know
TTITLE5=Ray Price - Release Me
TTITLE6=Wade Ray - Idaho Red
TTITLE7=Webb Pierce - Slowly
TTITLE8=The Browns - Looking Back To See
TTITLE9=Little Jimmy Dickens - Take Me As I Am (Or Let Me Go)
TTITLE10=Carl Butler - I Wouldn't Change You If I Could
TTITLE11=Tommy Collins - You Better Not Do That
TTITLE12=Red Foley and Kitty Wells - One By One
TTITLE13=Ray Price - I'll Be There (If You Ever Want Me)
TTITLE14=Roy Acuff - I Closed My Heart's Door
TTITLE15=Faron Young - If You Ain't Lovin' (You Ain´t Livin')
TTITLE16=Hank Snow - I Don't Hurt Anymore
TTITLE17=Al Terry - Good Deal, Lucille
TTITLE18=Webb Pierce and The Wilburn Brothers - Sparkling Brown Eyes
TTITLE19=Jimmy Newman - Cry, Cry Darling
TTITLE20=Sonny Burns - Too Hot To Handle
TTITLE21=Jimmy Lee and Johnny Mathis - If You Don´t Somebody Else Will
TTITLE22=Sheb Wooley - Blue Guitar
TTITLE23=Ernest Tubb - Two Glasses Joe
TTITLE24=Terry Fell - Truck Drivin' Man
TTITLE25=Eddie Noack - Take It Away, Lucky
TTITLE26=Carl Smith - Loose Talk
TTITLE27=Elvis Presley, Scotty and Bill - That´s All Right
EXTD=
EXTT0=
EXTT1=
EXTT2=
EXTT3=
EXTT4=
EXTT5=
EXTT6=
EXTT7=
EXTT8=
EXTT9=
EXTT10=
EXTT11=
EXTT12=
EXTT13=
EXTT14=
EXTT15=
EXTT16=
EXTT17=
EXTT18=
EXTT19=
EXTT20=
EXTT21=
EXTT22=
EXTT23=
EXTT24=
EXTT25=
EXTT26=
EXTT27=
PLAYORDER=
